<?xml version="1.0" encoding="UTF-8"?>
<svg xmlns="http://www.w3.org/2000/svg" xmlns:xlink="http://www.w3.org/1999/xlink" width="2836" height="2836" viewBox="0 0 2836 2836">
<path fill-rule="evenodd" fill="rgb(100%, 100%, 100%)" fill-opacity="1" d="M 0.882812 0.46875 L 2835.53125 0.46875 L 2835.53125 2835.117188 L 0.882812 2835.117188 L 0.882812 0.46875 "/>
<path fill-rule="evenodd" fill="rgb(0%, 0%, 0%)" fill-opacity="1" d="M 1091.929688 906.109375 C 1077.949219 897.820312 1044.691406 875.558594 1056.769531 857.308594 C 1061.621094 849.96875 1069.671875 847.5 1080.890625 849.910156 C 1111.410156 856.449219 1171.488281 834.421875 1203.691406 805.46875 C 1235.308594 777.050781 1217.410156 773.320312 1219.640625 741.589844 C 1221.929688 709.210938 1240.128906 675.839844 1254.699219 660.511719 C 1295.578125 617.5 1324.171875 558.238281 1324.628906 556.910156 C 1317.511719 528.820312 1319.550781 510.101562 1330.75 500.730469 C 1344.910156 492.878906 1363.179688 488.160156 1386.378906 480.691406 C 1410.519531 472.898438 1408.960938 452.550781 1417.128906 429.929688 C 1422.28125 415.671875 1454.421875 419.050781 1457.890625 431.980469 C 1466.121094 462.769531 1448.910156 471.96875 1484.339844 485.929688 C 1496.949219 490.890625 1509.78125 495.800781 1522.660156 500.820312 L 1524.53125 496.828125 C 1532.589844 479.628906 1566.238281 494.929688 1558 512.511719 L 1557.03125 514.578125 C 1577.058594 522.910156 1596.789062 531.851562 1615.511719 542 C 1620.488281 544.710938 1625.359375 547.550781 1630.121094 550.519531 L 1632.460938 547.421875 C 1643.929688 532.28125 1673.640625 554.28125 1661.921875 569.75 L 1660.140625 572.089844 C 1682.699219 590.699219 1701.769531 612.46875 1717.109375 636.480469 L 1721.011719 633.871094 C 1736.789062 623.289062 1757.710938 653.761719 1741.589844 664.570312 L 1734.980469 669 C 1750.878906 703.070312 1760.03125 740.359375 1761.839844 778.761719 L 1766.050781 778.398438 C 1784.980469 776.800781 1788.5 813.601562 1769.171875 815.230469 L 1761.300781 815.898438 C 1760.289062 829.089844 1758.421875 842.328125 1755.648438 855.53125 C 1752.390625 871.078125 1747.949219 886.960938 1742.289062 903.171875 L 1745.988281 903.871094 C 1764.648438 907.449219 1758.089844 943.828125 1739.03125 940.179688 L 1728.398438 938.140625 C 1715.289062 967.648438 1698.289062 998.078125 1677.261719 1029.261719 C 1675.03125 1032.328125 1672.820312 1035.359375 1670.621094 1038.371094 L 1672.03125 1039.089844 C 1688.949219 1047.71875 1672.53125 1080.828125 1655.238281 1072.019531 L 1648.480469 1068.570312 C 1628.460938 1095.878906 1610.460938 1120.71875 1595.679688 1144.058594 L 1598.390625 1145.441406 C 1615.308594 1154.070312 1598.890625 1187.191406 1581.601562 1178.371094 L 1577.101562 1176.078125 C 1564.878906 1199.640625 1556.941406 1222.039062 1554.710938 1244.449219 C 1598.300781 1229.488281 1669.550781 1193.308594 1712.378906 1208.828125 C 1725.5 1213.589844 1714.710938 1240.039062 1726.710938 1261.921875 C 1734.160156 1275.5 1751.941406 1283.96875 1754.789062 1305.359375 C 1757.289062 1324.121094 1740.46875 1339.511719 1739.308594 1357.519531 C 1737.859375 1380.148438 1754.269531 1394.511719 1746.648438 1424.03125 C 1741.878906 1442.539062 1712.109375 1445.300781 1706.839844 1456.25 C 1697.011719 1476.710938 1708.019531 1504.320312 1691.429688 1515.878906 C 1678.03125 1525.21875 1662.960938 1514.46875 1644.488281 1528.25 C 1624.78125 1542.960938 1621.53125 1568.699219 1610.929688 1571.199219 C 1577.078125 1579.171875 1531.898438 1518.199219 1502.769531 1460.769531 C 1500.519531 1472.039062 1494.878906 1512.871094 1492.96875 1524.011719 L 1495.058594 1524.371094 C 1513.769531 1527.628906 1507.828125 1564.121094 1488.710938 1560.789062 L 1487.269531 1560.539062 C 1481.839844 1599.359375 1478.511719 1637.371094 1477.28125 1674.589844 L 1480.5 1674.71875 C 1499.488281 1675.488281 1498.410156 1712.429688 1479.019531 1711.660156 L 1476.738281 1711.558594 C 1476.929688 1754.980469 1480.070312 1797.269531 1486.140625 1838.449219 L 1489.691406 1838.164062 C 1508.628906 1836.664062 1511.960938 1873.480469 1492.609375 1875.015625 L 1492.359375 1875.035156 C 1494.96875 1888.515625 1497.898438 1901.871094 1501.148438 1915.105469 C 1513.570312 1959.925781 1522.429688 2001.78125 1527.738281 2040.671875 L 1528.871094 2040.582031 C 1547.808594 2039.078125 1551.148438 2075.894531 1531.800781 2077.429688 L 1531.769531 2077.433594 C 1534.761719 2114.128906 1534.25 2147.914062 1530.230469 2178.777344 C 1528.078125 2195.308594 1524.738281 2210.925781 1520.421875 2225.675781 L 1521.871094 2226.105469 C 1540.078125 2231.515625 1529.949219 2267.066406 1511.339844 2261.535156 L 1507.71875 2260.460938 C 1489.410156 2301.613281 1462.460938 2334.128906 1431.011719 2357.800781 C 1441.960938 2372.664062 1413.78125 2395.429688 1401.789062 2380.40625 L 1399.660156 2377.746094 C 1361.351562 2398.117188 1318.988281 2407.105469 1278.589844 2404.425781 C 1273.910156 2420.039062 1241.230469 2417.558594 1242.21875 2399.304688 L 1242.261719 2398.691406 C 1189.46875 2385.261719 1143.761719 2349.910156 1120.410156 2291.871094 L 1119.078125 2292.316406 C 1101.050781 2298.316406 1088.988281 2263.371094 1107.410156 2257.246094 L 1109.671875 2256.492188 C 1107.179688 2244.921875 1105.449219 2232.660156 1104.570312 2219.707031 C 1102.710938 2192.605469 1105.628906 2168.53125 1112.128906 2147.519531 C 1098.128906 2139.816406 1108.351562 2109.425781 1125.199219 2114.800781 L 1126.191406 2115.121094 C 1147.890625 2077.539062 1182.96875 2054.117188 1219.890625 2045.289062 C 1364.609375 2010.691406 1409.941406 2161.296875 1341.871094 2224.945312 C 1299.839844 2264.246094 1239.03125 2244.089844 1217.339844 2207.71875 C 1166.691406 2122.78125 1299.328125 2086.019531 1298.109375 2160.574219 C 1279.121094 2129.367188 1256.550781 2140.011719 1245.660156 2154.789062 C 1221 2188.269531 1257.890625 2208.527344 1289.730469 2202.355469 C 1323.140625 2195.882812 1351.171875 2161.039062 1305.058594 2113.746094 C 1273.980469 2084.851562 1237.21875 2089.257812 1194.78125 2126.964844 C 1156.25 2172.011719 1165.800781 2235.914062 1199.78125 2276.847656 C 1252.988281 2340.9375 1329.960938 2334.972656 1382.449219 2284.550781 C 1430.960938 2237.953125 1458.558594 2153.390625 1427.148438 2051.066406 C 1348.011719 1709.800781 1086.921875 1577.570312 1104.859375 1303.789062 C 1121.710938 1046.660156 1301.128906 974.53125 1522.269531 824.671875 C 1566.660156 791.871094 1570.96875 760.980469 1559.28125 736.109375 C 1556.261719 729.679688 1552.140625 728.421875 1545.371094 725.289062 C 1545.371094 725.289062 1537.671875 738.300781 1522.550781 749.578125 C 1459.988281 796.269531 1393.429688 751.78125 1318.46875 795.730469 C 1263.28125 828.089844 1187.820312 880.148438 1142.03125 912.289062 C 1129.941406 920.78125 1123.949219 926.210938 1117.96875 926.550781 C 1102.308594 927.429688 1102.96875 912.671875 1091.929688 906.109375 "/>
</svg>
